<?xml version="1.0" encoding="UTF-8"?>
<!-- Generated by Pixelmator Pro 3.1.1 -->
<svg width="1024" height="1024" viewBox="0 0 1024 1024" xmlns="http://www.w3.org/2000/svg" xmlns:xlink="http://www.w3.org/1999/xlink">
    <linearGradient id="linearGradient1" x1="108.86183" y1="774.317208" x2="932.596187" y2="233.565479" gradientUnits="userSpaceOnUse">
        <stop offset="0" stop-color="#5ab289" stop-opacity="1"/>
        <stop offset="1" stop-color="#75bd55" stop-opacity="1"/>
    </linearGradient>
    <path id="Shape" fill="url(#linearGradient1)" fill-rule="evenodd" stroke="none" d="M 420.71347 803.043335 C 414.785706 803.75061 390.777496 800.74585 367.361969 796.366211 C 343.946411 791.98645 298.261475 783.908325 265.839935 778.414551 C 233.418411 772.920959 202.064667 766.873962 196.165085 764.976746 C 190.265411 763.079651 181.153076 757.921631 175.915512 753.514526 C 170.677948 749.107361 164.952866 740.760193 163.193176 734.96521 C 161.433502 729.170288 159.134033 720.525513 158.083145 715.754517 C 156.473877 708.44928 153.455612 706.440857 138.958313 703.029114 C 129.490494 700.800903 116.586166 696.365601 110.282021 693.172607 C 103.977867 689.979736 94.935402 683.179688 90.187752 678.061523 C 85.440102 672.943237 79.219002 664.120728 76.36306 658.455933 C 73.50721 652.791138 70.306763 642.47522 69.251175 635.531616 C 68.059563 627.693604 71.160667 601.797729 77.430138 567.233521 C 82.984322 536.613159 89.844749 505.23877 92.675713 497.512512 C 95.506676 489.786377 101.671303 478.891296 106.374779 473.301514 C 111.078354 467.711609 122.355423 459.678833 131.435074 455.450867 C 140.514618 451.2229 153.655701 447.749146 160.63736 447.731567 C 167.619019 447.713989 187.410461 450.099365 204.618301 453.032654 C 225.228058 456.545654 245.854721 457.79834 265.059906 456.703369 C 292.436035 455.142456 295.386047 455.626404 313.41391 464.634949 C 323.973389 469.911682 341.246582 475.834473 351.798767 477.796936 C 362.350952 479.759216 383.432861 480.615723 398.647339 479.700012 C 421.599945 478.318665 428.423615 479.099792 438.722137 484.287598 C 445.548584 487.726563 452.452698 493.795898 454.064453 497.775146 C 455.676117 501.754456 459.940765 521.222168 463.54126 541.036621 C 467.141693 560.851074 473.197784 595.291748 476.999084 617.571533 C 483.910492 658.080261 483.910492 658.080261 475.253204 709.266602 C 470.491638 737.419006 463.690277 766.660583 460.139038 774.247681 C 456.480774 782.063599 448.873077 791.014771 442.5867 794.899902 C 436.484131 798.67157 426.641235 802.33606 420.71347 803.043335 Z M 614.617188 802.772339 C 605.302795 803.972473 596.205261 803.022034 589.893127 800.189331 C 584.400085 797.724304 575.965576 791.024658 571.149536 785.301208 C 566.333557 779.577637 560.81897 769.434753 558.894653 762.761475 C 556.970581 756.088135 551.117188 725.575195 545.887207 694.954834 C 540.657227 664.334473 531.840332 614.666199 526.294128 584.580933 C 520.747742 554.495605 515.877563 524.395386 515.471191 517.691406 C 514.732605 505.502502 514.732605 505.502502 535.347473 501.694702 C 546.68573 499.600525 564.548584 493.783264 575.04248 488.767761 C 592.65271 480.350891 597.371765 479.616089 636.300232 479.229736 C 677.655518 478.819336 678.963562 478.579285 703.388794 466.914612 C 727.631348 455.337341 729.087524 455.06311 757.654968 456.691956 C 777.069519 457.79895 797.605042 456.559631 818.297241 453.032654 C 835.504883 450.099365 855.296448 447.713989 862.278015 447.731567 C 869.259766 447.749146 882.444946 451.243286 891.578613 455.49646 C 900.712341 459.74939 912.722595 468.733765 918.268372 475.461914 C 923.814148 482.189819 929.994202 493.801086 932.001831 501.264771 C 934.00946 508.728455 940.160706 539.151245 945.671509 568.870972 C 952.020447 603.110596 954.968323 627.532043 953.718018 635.531616 C 952.632874 642.47522 949.408325 652.791138 946.552368 658.455933 C 943.696472 664.120728 937.475464 672.943237 932.727783 678.061523 C 927.980164 683.179688 918.617981 690.184937 911.922852 693.628662 C 905.227905 697.072388 892.330811 701.481079 883.262634 703.425781 C 867.382019 706.831665 866.698425 707.440552 864.69519 719.968323 C 863.55127 727.121948 859.498596 737.683716 855.689392 743.439026 C 851.880005 749.194214 842.13385 757.10083 834.030945 761.009155 C 825.240417 765.249207 798.165344 771.587036 766.900208 776.723145 C 738.081116 781.45752 695.343628 788.828125 671.92804 793.102295 C 648.51239 797.376465 622.722473 801.727966 614.617188 802.772339 Z M 154.493225 653.151489 C 167.592834 652.381042 167.592834 652.381042 171.414017 632.731628 C 173.515701 621.9245 179.135452 592.034912 183.90239 566.310303 C 188.669235 540.585815 192.107742 515.532776 191.543365 510.636902 C 190.672562 503.083923 188.425369 501.296326 176.70755 498.836975 C 167.196365 496.840515 159.893494 497.182922 153.245438 499.936523 C 147.936615 502.13562 141.991959 507.861145 140.035095 512.659851 C 138.078323 517.458679 133.537949 537.595703 129.945435 557.408813 C 126.352913 577.221985 122.480354 601.052673 121.339813 610.365845 C 120.199272 619.679077 120.21077 631.06311 121.365501 635.663635 C 122.520134 640.26416 127.498848 646.254272 132.429199 648.975098 C 137.359634 651.695862 147.288391 653.575256 154.493225 653.151489 Z M 868.481995 654.018494 C 874.932251 654.018494 884.536316 651.781128 889.824219 649.04657 C 895.158325 646.288269 900.379761 640.326416 901.55188 635.655762 C 902.714172 631.025391 902.798523 619.63092 901.739563 610.334839 C 900.680542 601.038696 896.837769 576.485229 893.19989 555.771362 C 889.562012 535.057617 884.91571 514.956299 882.874451 511.101929 C 880.833435 507.247498 875.644226 502.210388 871.342957 499.908508 C 865.646667 496.859924 859.295532 496.53949 847.960266 498.729248 C 832.398315 501.735474 832.398315 501.735474 833.045532 519.747437 C 833.401489 529.654053 838.182373 562.075562 843.669556 591.795288 C 849.156799 621.515137 854.345764 647.67334 855.2005 649.924866 C 856.055176 652.176392 862.031921 654.018494 868.481995 654.018494 Z M 520.784119 449.288452 C 512.71051 450.421814 501.925934 448.843079 490.768921 444.894592 C 481.191254 441.505127 468.35318 433.883972 462.239929 427.958801 C 456.126678 422.03363 448.641602 411.952454 445.606354 405.556152 C 442.571228 399.160095 439.36377 387.503418 438.478882 379.652588 C 437.593994 371.801941 438.534637 359.822266 440.569275 353.031555 C 442.60379 346.240723 448.78952 334.443542 454.315216 326.815552 C 460.855713 317.786621 470.29425 310.184387 481.360046 305.032166 C 493.395172 299.42865 504.143677 297.108582 518.173645 297.085999 C 537.989136 297.054016 537.989136 297.054016 545.089661 282.43927 C 548.994812 274.401123 557.525635 261.918518 564.047058 254.700134 C 570.568481 247.481689 583.705688 237.758911 593.240784 233.093811 C 602.775635 228.428711 618.59668 223.784241 628.398438 222.772583 C 640.070862 221.567932 652.349976 222.727417 663.986206 226.13324 C 673.757751 228.993408 686.378845 234.699524 692.032959 238.813293 C 697.68689 242.927124 707.357483 250.309265 713.522949 255.218201 C 724.733032 264.143433 724.733032 264.143433 741.758179 257.674377 C 751.121948 254.116455 765.134827 251.205322 772.897949 251.205322 C 781.807617 251.205322 793.561157 254.526428 804.770691 260.211304 C 815.349792 265.576599 826.683777 274.741516 832.807068 282.882385 C 838.460388 290.398071 844.86145 303.949829 847.032043 312.997559 C 850.350281 326.830139 850.125427 332.381958 845.617615 347.887756 C 841.746704 361.203247 836.276672 370.308167 825.934631 380.650208 C 815.618835 390.966003 806.482117 396.463806 793.272766 400.304016 C 778.623413 404.562744 771.721008 404.946533 758.969421 402.211914 C 750.189514 400.328796 737.806458 396.308899 731.451721 393.278503 C 719.897827 387.76886 719.897827 387.76886 704.648071 401.192322 C 696.260498 408.575195 682.520081 417.245178 674.113342 420.458923 C 665.689636 423.679077 650.007874 426.326721 639.178955 426.3573 C 628.211548 426.388306 611.31488 423.616699 600.937744 420.084534 C 582.346069 413.756592 582.346069 413.756592 568.645813 426.13385 C 561.110779 432.941528 550.094543 440.538086 544.165588 443.015503 C 538.236633 445.492859 527.714905 448.315613 520.784119 449.288452 Z M 380.461578 427.201233 C 375.058014 427.634766 363.018463 425.32251 353.707153 422.062622 C 344.395874 418.802673 328.658386 410.005371 318.734924 402.513123 C 300.692261 388.890808 300.692261 388.890808 288.178497 394.196533 C 281.295898 397.114685 270.190613 400.763123 263.500092 402.304443 C 256.056396 404.019043 244.999908 403.747803 235.010498 401.605469 C 226.031799 399.679993 213.084488 394.04425 206.238754 389.081726 C 199.393112 384.119202 189.528824 372.217896 184.318253 362.634216 C 177.355972 349.828857 174.854431 340.779663 174.882019 328.500183 C 174.902695 319.31012 177.100525 306.633057 179.765991 300.328918 C 182.431442 294.024719 188.828033 283.866638 193.980652 277.755371 C 199.133377 271.644104 210.777832 263.184631 219.857468 258.956665 C 228.937012 254.728699 242.574524 251.254944 250.162918 251.237305 C 257.751343 251.219727 271.414917 254.14386 280.526428 257.735168 C 297.092957 264.265198 297.092957 264.265198 314.648071 249.966248 C 324.303284 242.10199 339.376953 232.90033 348.145081 229.518127 C 358.344482 225.583801 372.344788 223.382629 387.011383 223.407227 C 404.460968 223.436646 413.73642 225.307556 425.850586 231.241699 C 434.603821 235.529602 445.364594 242.143799 449.763458 245.940186 C 457.761322 252.842773 457.761322 252.842773 439.566559 265.942383 C 429.559448 273.147217 415.512268 286.924683 408.350525 296.558899 C 401.188873 306.193115 392.934753 321.672363 390.007935 330.95697 C 385.983093 343.725586 385.113586 355.414795 386.438904 378.938171 C 387.402649 396.043091 388.662537 413.722412 389.238708 418.225464 C 390.135864 425.236755 388.875214 426.526001 380.461578 427.201233 Z"/>
</svg>
